# xmcd
#
# Track frame offsets:
#   150
#   18392
#   30453
#   47849
#   63201
#   78077
#   96501
#   109786
#   126272
#   143756
#   162774
#   176342
#   203243
#
# Disc length: 2941 seconds
#
# Revision: 0
# Processed by: cddbd v1.5.1PL0 Copyright (c) Steve Scherf et al.
# Submitted via: Media_Universe 3.0
#
DISCID=a40b7b0d
DTITLE=JOE NICHOLS - Man With A Memory
DYEAR=1900
DGENRE=Country
TTITLE0=The Impossible
TTITLE1=Joe's Place
TTITLE2=Brokenheartsville
TTITLE3=She Only Smokes When She Drinks
TTITLE4=Everything's A Thing
TTITLE5=That Would Be Her
TTITLE6=Cool To Be A Fool
TTITLE7=Cant Hold A Halo To You
TTITLE8=You Can't Break The Fall
TTITLE9=You Ain't Heard Nothin' Yet
TTITLE10=Life Don't Have To Mean Nothin' At All
TTITLE11=Man Without A Memory
TTITLE12=Kiss My Glass
EXTD=
EXTT0=
EXTT1=
EXTT2=
EXTT3=
EXTT4=
EXTT5=
EXTT6=
EXTT7=
EXTT8=
EXTT9=
EXTT10=
EXTT11=
EXTT12=
PLAYORDER=
